<svg id="add-svgrepo-com" xmlns="http://www.w3.org/2000/svg" width="232.45" height="232.45" viewBox="0 0 232.45 232.45">
  <g id="Group_1" data-name="Group 1">
    <path id="Path_10" data-name="Path 10" d="M207.962,0H24.488A24.518,24.518,0,0,0,0,24.488V207.962A24.518,24.518,0,0,0,24.488,232.45H207.962a24.518,24.518,0,0,0,24.488-24.488V24.488A24.548,24.548,0,0,0,207.962,0Zm12.861,207.962a12.9,12.9,0,0,1-12.861,12.861H24.488a12.9,12.9,0,0,1-12.861-12.861V24.488A12.9,12.9,0,0,1,24.488,11.627H207.962a12.9,12.9,0,0,1,12.861,12.861V207.962Z" fill="#f7d4bc"/>
    <path id="Path_11" data-name="Path 11" d="M233.63,184.046H195.521V145.937a5.837,5.837,0,1,0-11.675,0v38.109H145.737a5.814,5.814,0,1,0,0,11.627h38.109v38.109a5.837,5.837,0,0,0,11.675,0V195.673H233.63a5.814,5.814,0,1,0,0-11.627Z" transform="translate(-73.506 -73.611)" fill="#f7d4bc"/>
  </g>
</svg>
