<svg width="100" height="100" viewBox="0 0 100 100" fill="none" xmlns="http://www.w3.org/2000/svg">
<path d="M91.1712 6.47586H8.82719C3.95969 6.47586 0 10.4354 0 15.303V72.3754C0 77.243 3.95969 81.2026 8.82719 81.2026H37.1292C37.993 81.2026 38.6917 80.5038 38.6917 79.6401C38.6917 78.7765 37.993 78.0776 37.1292 78.0776H8.82719C5.6825 78.0776 3.125 75.5202 3.125 72.3754V15.303C3.125 12.1582 5.6825 9.60086 8.82719 9.60086H91.1712C94.3161 9.60086 96.875 12.1582 96.875 15.303V72.3754C96.875 75.5202 94.3161 78.0776 91.1712 78.0776C90.3077 78.0776 89.6087 78.7765 89.6087 79.6401C89.6087 80.5038 90.3077 81.2026 91.1712 81.2026C96.0389 81.2026 100 77.243 100 72.3754V15.303C100 10.4354 96.0389 6.47586 91.1712 6.47586Z" fill="#C4C4C4"/>
<path d="M34.375 50.2259H15.625C14.7614 50.2259 14.0625 50.9246 14.0625 51.7884C14.0625 52.652 14.7614 53.3509 15.625 53.3509H34.375C35.2387 53.3509 35.9375 52.652 35.9375 51.7884C35.9375 50.9246 35.2387 50.2259 34.375 50.2259Z" fill="#C4C4C4"/>
<path d="M34.375 60.4599H15.625C14.7614 60.4599 14.0625 61.1587 14.0625 62.0224C14.0625 62.886 14.7614 63.5849 15.625 63.5849H34.375C35.2387 63.5849 35.9375 62.886 35.9375 62.0224C35.9375 61.1587 35.2387 60.4599 34.375 60.4599Z" fill="#C4C4C4"/>
<path d="M80.8395 65.6265C80.8107 65.528 80.7479 65.4532 80.7026 65.3654C83.9462 61.7655 85.9374 57.0152 85.9374 51.7884C85.9374 40.5701 76.8432 31.4759 65.6249 31.4759C54.4067 31.4759 45.3124 40.5701 45.3124 51.7884C45.3124 56.9577 47.2596 61.6613 50.4398 65.2468C50.407 65.3179 50.3551 65.3751 50.3326 65.4526L43.7592 87.9898C43.5867 88.5818 43.7774 89.218 44.2459 89.6179C44.7143 90.0176 45.3735 90.1016 45.929 89.8391L52.829 86.5615L57.164 92.8482C57.4585 93.2754 57.9421 93.5241 58.4503 93.5241C58.5389 93.5241 58.6273 93.5165 58.7159 93.5012C59.317 93.3974 59.8023 92.9549 59.9595 92.366L65.392 72.089C65.4704 72.0899 65.5464 72.1009 65.6249 72.1009C65.6621 72.1009 65.6981 72.0954 65.7353 72.0952L71.1685 92.366C71.3257 92.9535 71.8093 93.396 72.409 93.5012C72.499 93.5165 72.5892 93.5241 72.6776 93.5241C73.1842 93.5241 73.6648 93.2785 73.9609 92.8543L78.3096 86.5982L85.202 89.8421C85.7559 90.1016 86.4135 90.0146 86.8835 89.6148C87.3504 89.2151 87.5396 88.5802 87.3673 87.9898L80.8395 65.6265ZM65.6249 34.6009C75.1023 34.6009 82.8124 42.311 82.8124 51.7884C82.8124 61.2655 75.1023 68.9759 65.6249 68.9759C56.1478 68.9759 48.4374 61.2655 48.4374 51.7884C48.4374 42.311 56.1478 34.6009 65.6249 34.6009ZM57.8171 88.2904L54.6464 83.6929C54.2114 83.0627 53.3859 82.8368 52.6901 83.168L47.734 85.5224L52.9485 67.6449C55.5859 69.7562 58.761 71.2105 62.2357 71.7955L57.8171 88.2904ZM78.4454 83.2077C77.7542 82.8873 76.9318 83.1038 76.4968 83.7294L73.3154 88.3071L68.8948 71.8138C72.3709 71.2498 75.549 69.8149 78.1962 67.7238L83.3954 85.5377L78.4454 83.2077Z" fill="#C4C4C4"/>
<path d="M35.9375 23.6634C35.9375 21.9374 34.5384 20.5384 32.8125 20.5384H17.1875C15.4617 20.5384 14.0625 21.9374 14.0625 23.6634V39.2884C14.0625 41.0141 15.4617 42.4134 17.1875 42.4134H32.8125C34.5384 42.4134 35.9375 41.0141 35.9375 39.2884V23.6634ZM32.8125 39.2884H17.1875V23.6634H32.8125V39.2884Z" fill="#C4C4C4"/>
<path d="M65.625 61.1634C70.8028 61.1634 75 56.966 75 51.7884C75 46.6105 70.8028 42.4134 65.625 42.4134C60.4473 42.4134 56.25 46.6105 56.25 51.7884C56.25 56.966 60.4473 61.1634 65.625 61.1634ZM65.625 45.5384C69.0714 45.5384 71.875 48.342 71.875 51.7884C71.875 55.2346 69.0714 58.0384 65.625 58.0384C62.1787 58.0384 59.375 55.2346 59.375 51.7884C59.375 48.342 62.1787 45.5384 65.625 45.5384Z" fill="#C4C4C4"/>
</svg>
