<svg xmlns="http://www.w3.org/2000/svg" width="367.211" height="338.521" viewBox="0 0 367.211 338.521">
  <g id="comment-svgrepo-com_1_" data-name="comment-svgrepo-com (1)" transform="translate(-64.013 -92.955)">
    <path id="Path_2" data-name="Path 2" d="M383.549,421a16.4,16.4,0,1,0,0,32.785,16.4,16.4,0,0,0,0-32.785ZM268.8,421a16.4,16.4,0,1,0,0,32.785,16.4,16.4,0,0,0,0-32.785Z" transform="translate(-110.948 -193.609)" fill="#f7d4bc"/>
    <path id="Path_3" data-name="Path 3" d="M404.149,196.245A140.941,140.941,0,0,0,326.7,142.97v.041a150.382,150.382,0,0,0-23.769-21.351c-67.086-48.767-161.26-33.891-210.232,33.195a150.282,150.282,0,0,0,2.459,179.906l.328,54.341a12.225,12.225,0,0,0,.615,3.852,13.093,13.093,0,0,0,16.433,8.565l51.882-16.351a150.355,150.355,0,0,0,42.005,8.442l-.2.164a142.407,142.407,0,0,0,128.27,20.081l52.087,16.966a13.558,13.558,0,0,0,4.057.656,13.1,13.1,0,0,0,13.114-13.114V363.448A141.741,141.741,0,0,0,404.149,196.245Zm-234,159.826-4.918-2.049-40.571,12.7-.41-42.62-3.278-3.688a121.309,121.309,0,0,1-4.508-147.941C155.969,118.3,231.7,106.333,285.715,145.429c54.177,39.383,66.184,114.992,27.047,168.841A121.848,121.848,0,0,1,170.148,356.071ZM377.1,349.1l-3.278,4.1.41,42.62L334.072,382.3l-4.918,2.049a113.177,113.177,0,0,1-70.077,2.869l-.082-.041A150.194,150.194,0,0,0,354.726,188.3l.246.164A111.985,111.985,0,0,1,377.1,349.1Z" transform="translate(0 0)" fill="#f7d4bc"/>
    <path id="Path_4" data-name="Path 4" d="M408.8,421a16.4,16.4,0,1,0,0,32.785,16.4,16.4,0,0,0,0-32.785Z" transform="translate(-193.575 -193.609)" fill="#f7d4bc"/>
  </g>
</svg>
