<svg xmlns="http://www.w3.org/2000/svg" width="209.851" height="258.643" viewBox="0 0 209.851 258.643">
  <g id="delete-svgrepo-com" transform="translate(-41.785)">
    <path id="Path_5" data-name="Path 5" d="M205.261,22.186H156.578V0H90.468V22.186H41.785V57.217H205.261Zm-97.278-4.671h31.079v4.671H107.983Z" transform="translate(0)" fill="#f7d4bc"/>
    <path id="Path_6" data-name="Path 6" d="M198.438,178.391l3.3-50.391H62.769l11.1,169.314H140.53a75.528,75.528,0,0,1,57.908-118.923Z" transform="translate(-8.733 -53.268)" fill="#f7d4bc"/>
    <path id="Path_7" data-name="Path 7" d="M260.407,244.141a58.051,58.051,0,1,0,58.051,58.051A58.117,58.117,0,0,0,260.407,244.141Zm31.63,77.3-12.385,12.385-19.245-19.245-19.245,19.245-12.385-12.385,19.245-19.245-19.245-19.245,12.385-12.385,19.245,19.245,19.245-19.245,12.385,12.385-19.245,19.245Z" transform="translate(-66.822 -101.601)" fill="#f7d4bc"/>
  </g>
</svg>
