<svg id="edit-svgrepo-com" xmlns="http://www.w3.org/2000/svg" width="209.851" height="209.855" viewBox="0 0 209.851 209.855">
  <path id="Path_8" data-name="Path 8" d="M1.986,51.933.1,59.852a3.766,3.766,0,0,0-.084.767c0,.053-.015.1-.015.148a3.778,3.778,0,0,0,.247,1.261c.034.095.072.179.114.27a3.79,3.79,0,0,0,.744,1.124,3.823,3.823,0,0,0,1.246.828,3.771,3.771,0,0,0,1.44.285,3.818,3.818,0,0,0,.877-.1l7.923-1.888Z" transform="translate(0 145.32)" fill="#f7d4bc"/>
  <path id="Path_9" data-name="Path 9" d="M196.872,9.993a34.235,34.235,0,0,0-48.348,0L11.553,146.965c-.065.065-.1.144-.16.213-.08.091-.148.19-.22.289a3.694,3.694,0,0,0-.475.908c-.034.1-.084.186-.11.285-.011.038-.034.076-.046.114L1.066,188.578,18.287,205.8l39.805-9.477a2.745,2.745,0,0,0,.292-.114,3.509,3.509,0,0,0,.376-.148,3.739,3.739,0,0,0,.763-.467c.091-.072.186-.125.273-.205.03-.03.068-.046.1-.076L196.872,58.333A34.219,34.219,0,0,0,196.872,9.993ZM62.183,182.284l1.345-12.09,85-85a3.8,3.8,0,0,0-5.371-5.371l-85,85-18.129,2.013,2.013-18.129,85-85a3.8,3.8,0,1,0-5.371-5.371l-85,85-12.09,1.345L129.727,39.536l37.6,37.6ZM172.7,71.767l-37.6-37.6,5.371-5.371,37.6,37.6Zm10.741-10.741-37.6-37.6,5.375-5.374,37.6,37.6Z" transform="translate(2.983)" fill="#f7d4bc"/>
</svg>
