<svg width="199" height="199" viewBox="0 0 199 199" fill="none" xmlns="http://www.w3.org/2000/svg">
<path d="M182.952 16.0485H16.0484C7.19931 16.0485 0 23.2478 0 32.0968V147.645C0 156.494 7.19931 163.694 16.0484 163.694H57.7742V176.532H44.9355V182.952H154.065V176.532H141.226V163.694H182.952C191.801 163.694 199 156.494 199 147.645V32.0968C199 23.2478 191.801 16.0485 182.952 16.0485ZM134.806 176.532H64.1936V163.694H134.806V176.532ZM192.581 147.645C192.581 152.954 188.26 157.274 182.952 157.274H16.0484C10.7396 157.274 6.41935 152.954 6.41935 147.645V144.436H192.581V147.645ZM192.581 138.016H6.41935V32.0968C6.41935 26.788 10.7396 22.4678 16.0484 22.4678H182.952C188.26 22.4678 192.581 26.788 192.581 32.0968V138.016Z" fill="#B2B1AA"/>
<path d="M12.8389 131.597H186.161V28.8873H12.8389V131.597ZM144.436 35.3067H179.742V80.2422H144.436V35.3067ZM144.436 86.6615H179.742V125.178H144.436V86.6615ZM93.0808 35.3067H138.016V80.2422H93.0808V35.3067ZM138.016 86.6615V125.178H64.1937V86.6615H86.6614H93.0808H138.016ZM19.2582 35.3067H86.6614V80.2422H19.2582V35.3067ZM19.2582 86.6615H57.7743V125.178H19.2582V86.6615Z" fill="#B2B1AA"/>
<path d="M25.6777 73.8225H57.7745V41.7257H25.6777V73.8225ZM32.0971 48.1451H51.3551V67.4031H32.0971V48.1451Z" fill="#B2B1AA"/>
<path d="M115.548 41.7257C106.699 41.7257 99.5 48.925 99.5 57.7741C99.5 66.6232 106.699 73.8225 115.548 73.8225C124.397 73.8225 131.597 66.6232 131.597 57.7741C131.597 48.925 124.397 41.7257 115.548 41.7257ZM115.548 67.4031C110.24 67.4031 105.919 63.0829 105.919 57.7741C105.919 52.4653 110.24 48.1451 115.548 48.1451C120.857 48.1451 125.177 52.4653 125.177 57.7741C125.177 63.0829 120.857 67.4031 115.548 67.4031Z" fill="#B2B1AA"/>
<path d="M80.2418 41.7257H64.1934V48.1451H80.2418V41.7257Z" fill="#B2B1AA"/>
<path d="M80.2418 54.5646H64.1934V60.9839H80.2418V54.5646Z" fill="#B2B1AA"/>
<path d="M80.2418 67.4036H64.1934V73.8229H80.2418V67.4036Z" fill="#B2B1AA"/>
<path d="M173.323 41.7257H150.855V48.1451H173.323V41.7257Z" fill="#B2B1AA"/>
<path d="M173.323 54.5646H150.855V60.9839H173.323V54.5646Z" fill="#B2B1AA"/>
<path d="M173.323 67.4036H150.855V73.8229H173.323V67.4036Z" fill="#B2B1AA"/>
<path d="M150.855 118.758H173.323V93.0808H150.855V118.758ZM157.274 99.5002H166.903V112.339H157.274V99.5002Z" fill="#B2B1AA"/>
<path d="M81.8467 112.339H70.6128V118.758H81.8467C88.0702 118.758 93.3341 114.303 94.3548 108.16L94.9261 104.732C95.4332 101.702 98.0299 99.5002 101.105 99.5002C104.18 99.5002 106.776 101.702 107.283 104.732L107.855 108.163C108.875 114.303 114.139 118.758 120.363 118.758H131.597V112.339H120.363C117.288 112.339 114.691 110.137 114.184 107.107L113.613 103.676C112.592 97.5358 107.328 93.0808 101.105 93.0808C94.8812 93.0808 89.6173 97.5358 88.5966 103.679L88.0253 107.107C87.5182 110.137 84.9215 112.339 81.8467 112.339Z" fill="#B2B1AA"/>
<path d="M21.1387 105.92L38.5159 123.297L55.8931 105.92L38.5159 88.5425L21.1387 105.92ZM38.5159 114.22L30.2156 105.92L38.5159 97.6195L46.8161 105.92L38.5159 114.22Z" fill="#B2B1AA"/>
</svg>
