<svg width="198" height="172" viewBox="0 0 198 172" fill="none" xmlns="http://www.w3.org/2000/svg">
<g clip-path="url(#clip0_46_670)">
<path d="M159.678 15.4848V22.1935H144.631H38.3228V15.4848C38.3228 6.93069 46.3016 0 56.1483 0H141.852C151.694 0 159.678 6.93069 159.678 15.4848Z" fill="#B2B1AA"/>
<path d="M56.7923 148.882H159.678V156.515C159.678 165.069 151.694 172 141.852 172H136.891H56.1483C46.3016 172 38.3228 165.069 38.3228 156.515V148.882H56.7923Z" fill="#B2B1AA"/>
<path d="M159.677 82.7636V148.882H56.792L144.63 22.7577V22.1936H159.677V64.0375V82.7636Z" fill="#D3D1C1"/>
<path d="M144.631 22.1936V22.7577L56.7923 148.882H38.3228V22.1936H144.631Z" fill="#E2E0D0"/>
<path d="M99.0003 167.376C103.41 167.376 106.984 164.271 106.984 160.441C106.984 156.611 103.41 153.506 99.0003 153.506C94.591 153.506 91.0166 156.611 91.0166 160.441C91.0166 164.271 94.591 167.376 99.0003 167.376Z" fill="#969489"/>
<path d="M80.397 99.7582C79.1583 99.7582 77.9195 99.3475 76.9749 98.5266L61.9212 85.4454C60.0321 83.8039 60.0321 81.1427 61.9216 79.5012L76.9754 66.4242C78.865 64.7828 81.929 64.7828 83.8191 66.4242C85.7087 68.0657 85.7087 70.7273 83.8191 72.3692L72.1864 82.4744L83.8196 92.5833C85.7091 94.2252 85.7082 96.8864 83.8186 98.5279C82.8731 99.3475 81.6348 99.7582 80.397 99.7582Z" fill="#659157"/>
<path d="M117.603 99.7582C116.365 99.7582 115.127 99.348 114.182 98.5274C112.293 96.886 112.292 94.2248 114.181 92.5829L125.814 82.4739L114.182 72.3688C112.292 70.7273 112.292 68.0657 114.182 66.4242C116.072 64.7828 119.135 64.7828 121.025 66.4242L136.079 79.5012C137.968 81.1427 137.968 83.8035 136.079 85.4454L121.026 98.5266C120.081 99.3471 118.842 99.7582 117.603 99.7582Z" fill="#659157"/>
<path d="M92.9831 110.217C92.6739 110.217 92.3604 110.191 92.0454 110.137C89.4232 109.69 87.7146 107.48 88.2299 105.203L98.8754 58.1236C99.3903 55.8453 101.934 54.3619 104.556 54.8092C107.178 55.2564 108.887 57.4662 108.372 59.7441L97.7262 106.823C97.2733 108.827 95.2492 110.217 92.9831 110.217Z" fill="#659157"/>
</g>
<defs>
<clipPath id="clip0_46_670">
<rect width="198" height="172" fill="white"/>
</clipPath>
</defs>
</svg>
