<svg width="268" height="268" viewBox="0 0 268 268" fill="none" xmlns="http://www.w3.org/2000/svg">
<path d="M128.848 79.2138L130.514 65.6698L127.881 63.5123H133.701H140.058L137.432 65.6544L139.129 79.1907L149.724 58.3603C168.197 60.8403 181.495 68.7487 181.51 87.9974L86.4977 88.1125C86.467 68.8638 99.7341 60.9248 118.215 58.4064L128.848 79.2138ZM114.038 34.8427C114.092 34.835 114.138 34.7813 114.191 34.7582C117.385 46.2906 125.654 54.9129 134.023 55.0895C141.662 54.7287 151.014 46.2445 154.139 34.7736C155.582 34.8504 157.003 33.1612 157.41 30.7887C157.839 28.3394 156.941 26.1435 155.459 25.8902C155.352 25.8748 155.29 25.9285 155.191 25.9362C154.722 6.9409 145.716 0.276407 134.346 0C122.652 0.0691018 112.164 8.22312 112.848 25.9977C112.733 25.9823 112.633 25.9285 112.51 25.9362C111.051 26.1973 110.168 28.3855 110.59 30.8501C111.013 33.3224 112.548 35.1114 114.038 34.8427ZM74.2363 192.717L63.6333 213.548L61.9288 200.019L64.5546 197.862H58.2051L52.3854 197.877L55.0188 200.035L53.3528 213.578L42.7037 192.763C24.2233 195.282 10.9562 203.213 10.9869 222.47L105.999 222.339C106.007 203.106 92.709 195.22 74.2363 192.717ZM79.6875 160.324C79.2192 141.321 70.2131 134.664 58.8424 134.388C47.1491 134.457 36.6613 142.619 37.3523 160.385C37.2295 160.37 37.1373 160.309 37.0145 160.324C35.5557 160.577 34.6651 162.766 35.0874 165.23C35.5173 167.687 37.0529 169.484 38.5347 169.23C38.5961 169.23 38.6422 169.184 38.6959 169.154C41.8899 180.686 50.1588 189.308 58.5276 189.477C66.1593 189.116 75.5262 180.64 78.6433 169.161C80.0867 169.238 81.5071 167.541 81.914 165.176C82.3287 162.727 81.438 160.524 79.9562 160.255C79.8564 160.247 79.7796 160.309 79.6875 160.324ZM225.227 192.717L214.624 213.548L212.912 200.019L215.553 197.862H209.196L203.376 197.877L206.002 200.035L204.336 213.578L193.687 192.763C175.214 195.282 161.939 203.213 161.97 222.47L256.998 222.339C256.998 203.106 243.708 195.22 225.227 192.717ZM189.526 169.215C189.587 169.215 189.633 169.154 189.687 169.138C192.881 180.655 201.142 189.293 209.511 189.454C217.158 189.086 226.517 180.609 229.634 169.138C231.078 169.215 232.498 167.534 232.905 165.161C233.32 162.719 232.429 160.516 230.955 160.247C230.847 160.232 230.771 160.278 230.671 160.293C230.218 141.306 221.219 134.641 209.841 134.365C198.14 134.434 187.645 142.588 188.336 160.362C188.228 160.347 188.128 160.278 188.005 160.293C186.547 160.562 185.648 162.75 186.086 165.207C186.508 167.687 188.044 169.468 189.526 169.215ZM244.053 150.273C244.053 153.437 243.853 156.539 243.577 159.648L250.456 166.543C251.209 161.207 251.715 155.809 251.715 150.273C251.715 98.1016 217.557 53.792 170.454 38.3976V46.567C213.25 61.6696 244.053 102.386 244.053 150.273ZM24.4306 159.648C24.1773 156.562 23.9546 153.437 23.9546 150.273C23.9546 102.386 54.7501 61.6619 97.5306 46.567V38.3976C50.4275 53.792 16.2768 98.0939 16.2768 150.273C16.2768 155.809 16.7913 161.207 17.536 166.543L24.4306 159.648ZM134 260.33C104.41 260.33 77.5531 248.529 57.7598 229.457L52.3316 234.885C73.5299 255.354 102.291 268 134 268C165.709 268 194.47 255.354 215.668 234.885L210.24 229.457C190.447 248.529 163.59 260.33 134 260.33Z" fill="#B2B1AA"/>
</svg>
