<svg width="109" height="108" viewBox="0 0 109 108" fill="none" xmlns="http://www.w3.org/2000/svg">
<mask id="mask0_1_3" style="mask-type:alpha" maskUnits="userSpaceOnUse" x="-1" y="10" width="109" height="86">
<path d="M13.9233 49.8471L13.9346 49.9079C14.115 50.8824 14.5545 52.3464 15.3063 54.3528C16.0896 56.3309 16.8266 58.0513 17.517 59.5187C18.1715 60.6557 18.983 62.3822 19.9432 64.6355C20.9623 66.8872 21.7152 68.7363 22.1763 70.1553C22.4089 70.771 22.7453 71.5634 23.1942 72.5427L23.2087 72.5745L23.2222 72.6068L23.8084 74.0138C24.1141 73.4085 24.371 72.8978 24.5791 72.4816C24.5792 72.4816 24.5792 72.4815 24.5792 72.4815L28.7391 64.1616L31.6141 58.4116C33.0684 55.42 34.0877 53.397 34.6462 52.4103C35.4761 50.7119 36.354 49.1321 37.2816 47.6734C37.7489 46.9175 38.1998 46.2664 38.6283 45.7807C38.8419 45.5387 39.1014 45.2783 39.404 45.0639C39.6746 44.8723 40.1978 44.56 40.896 44.56C41.7205 44.56 42.5131 44.9558 42.9833 45.7197C43.3554 46.3244 43.408 46.9745 43.408 47.392C43.408 48.1198 43.2666 48.955 43.0496 49.8391L42.809 51.3426C42.7479 51.7697 42.683 53.1795 42.6397 55.7773C42.5973 58.3209 42.576 61.86 42.576 66.4C42.576 68.4412 42.511 70.8998 42.3827 73.7704C42.2982 76.597 42.2122 78.5465 42.1211 79.5585C42.0426 80.5877 42.0001 82.1609 42 84.3098L42.0639 90.5074L42.064 90.5177V90.528V90.848C42.064 91.157 42.0459 91.8162 41.683 92.421C41.4638 92.7863 41.0786 93.1939 40.4805 93.3933C40.1226 93.5127 39.7871 93.5242 39.5032 93.4888C39.4132 93.4917 39.2773 93.5024 39.0871 93.529C38.7156 93.5894 38.3356 93.616 37.952 93.616H37.7057L37.4667 93.5562C36.6781 93.359 36.1006 92.8337 35.7789 92.19L35.681 91.994L35.6278 91.7813C35.5189 91.3461 35.504 90.8239 35.504 90.4V86.624C35.504 82.3657 35.5429 79.667 35.6422 78.7414C35.7207 77.9095 35.8042 76.3063 35.8892 73.8819L35.8898 73.8644L35.8908 73.8469C36.0155 71.4775 36.0776 69.5816 36.0799 68.1478C36.0518 67.7574 36.0541 67.1148 36.0773 66.2709C35.7397 66.9495 35.3849 67.6693 35.0128 68.4304L35.0088 68.4385L35.0048 68.4465C34.0664 70.3232 33.2537 71.9275 32.5671 73.2579C31.8036 74.7851 30.8275 76.7585 29.6383 79.1794C28.4964 81.5477 27.6122 83.4216 26.9825 84.8062C26.4286 86.1052 25.9774 87.114 25.6347 87.8107C25.4663 88.1532 25.3006 88.4686 25.1456 88.7175C25.0732 88.8337 24.961 89.0044 24.8155 89.1688C24.7446 89.2488 24.6138 89.3873 24.4265 89.5201C24.2729 89.629 23.848 89.904 23.232 89.904C22.6531 89.904 22.2285 89.6707 22.0147 89.5282C21.7858 89.3756 21.6161 89.2049 21.5054 89.082C21.2834 88.8352 21.0946 88.5489 20.941 88.2929C20.6798 87.8575 20.5339 87.6224 20.4797 87.5411L20.468 87.5236L20.4568 87.5059C20.057 86.8777 19.5281 85.7467 18.8977 84.2759L18.8937 84.2666L18.8898 84.2572C18.2374 82.6914 17.7065 81.3 17.3026 80.0885C17.2314 79.8749 16.9643 79.2798 16.3978 78.1795C15.8566 77.1283 15.0997 75.7244 14.1227 73.9615L14.1105 73.9395L14.0988 73.9171C13.3684 72.5171 12.805 71.432 12.4096 70.6637L12.304 81.0688L12.3039 81.0763L12.24 91.04C12.24 91.0426 12.24 91.0453 12.24 91.048C12.2385 91.6467 12.0681 93.039 10.6626 93.601L10.6625 93.6011C10.1541 93.8044 9.6327 93.872 9.152 93.872H9.00976L8.86895 93.8519C8.65435 93.8212 8.53081 93.8114 8.47558 93.8088L7.19532 93.867C6.45083 93.9487 5.82425 94 5.376 94C4.95077 94 4.45452 93.961 3.97554 93.8014C3.49107 93.6399 2.82003 93.2802 2.43515 92.5104L2.352 92.3441L2.30093 92.1654C2.18988 91.7766 2.15745 91.3562 2.14528 91.0154C2.13237 90.6539 2.13897 90.2373 2.15999 89.7775C2.15953 88.4066 2.13851 87.1004 2.09711 85.8586L2.09654 85.8416L2.09627 85.8245L1.96827 77.9525L1.968 77.9363V77.92C1.968 76.6785 2.01232 75.3974 2.10029 74.0771C2.18484 72.7663 2.24787 71.6094 2.28974 70.6047L2.29089 70.5771L2.29281 70.5494C2.50625 67.4758 2.608 65.384 2.608 64.224V64.2134L2.60812 64.2027L2.73581 52.1999L2.67235 48.773L2.672 48.7545V48.736C2.672 47.9572 2.69902 47.2753 2.76745 46.7279C2.80136 46.4567 2.85202 46.1624 2.93635 45.8813C3.00364 45.657 3.16667 45.1729 3.57779 44.7618L13.9233 49.8471ZM13.9233 49.8471L13.9083 49.7871C13.8316 49.48 13.7312 49.04 13.6064 48.4578C13.4666 47.7618 13.2966 47.1177 13.0879 46.5395C12.7863 45.6547 12.1567 44.728 11.0005 44.3426L10.9025 44.31L10.8017 44.2876C10.1931 44.1524 9.41308 44.112 8.576 44.112C7.86636 44.112 7.24758 44.1335 6.75497 44.1883C6.67456 44.1972 6.62268 44.1979 6.59523 44.1971C6.30892 44.1038 5.88306 43.984 5.44 43.984C4.70429 43.984 4.05571 44.2839 3.57789 44.7617L13.9233 49.8471ZM39.4062 47.352C39.4065 47.3516 39.4075 47.3593 39.4078 47.3762C39.406 47.3608 39.4058 47.3524 39.4062 47.352ZM21.7388 86.6205C21.739 86.6201 21.7405 86.6178 21.7434 86.6137C21.7402 86.6187 21.7386 86.6208 21.7388 86.6205Z" fill="white" stroke="black" stroke-width="4"/>
<path d="M64.3429 13.8172L64.355 13.8247L64.3673 13.8321C66.7269 15.2402 68.5438 16.5638 69.8551 17.7958C69.6229 18.126 69.2744 18.6403 68.8159 19.3279L68.8102 19.3365L68.8046 19.3451C68.3462 20.0537 68.0091 20.5141 67.7833 20.7721L67.7459 20.8148L67.7119 20.8601C67.6807 20.9017 67.6479 20.945 67.6134 20.9901C67.423 20.8222 67.2289 20.6655 67.0308 20.5208C65.2992 19.0094 63.5985 17.7017 61.9285 16.6029C60.1347 15.4228 58.2944 14.756 56.432 14.756C55.0142 14.756 53.7103 15.0851 52.6308 15.8569C51.8933 16.3588 51.4518 17.1131 51.196 17.909C50.9389 18.7087 50.836 19.6468 50.836 20.672C50.836 22.9377 51.7093 24.8289 53.484 26.16C54.9824 27.2838 56.9175 28.3216 59.2489 29.2894L59.258 29.2931L59.267 29.2968C59.4538 29.3714 60.6596 29.8909 62.9389 30.88L62.9389 30.8801L62.9482 30.884C64.8964 31.7138 66.7109 33.3419 68.3473 35.9363L68.3517 35.9432L68.3561 35.9501C69.9672 38.4433 70.804 41.4567 70.804 45.056C70.804 48.715 69.4677 51.2881 66.864 53.0239C64.1285 54.8475 60.2136 55.844 54.96 55.844C51.9681 55.844 49.616 55.5565 47.8558 55.0275C46.097 54.4989 45.0484 53.7668 44.475 52.9612C43.6444 51.7685 43.0086 50.8602 42.5689 50.2381C42.3637 49.9479 42.1988 49.7166 42.0757 49.5464L42.096 49.5183C42.4856 48.9789 43.0402 48.3271 43.7753 47.5588C43.8933 47.6884 44.0042 47.8055 44.1074 47.9087C46.8713 50.6726 50.0997 52.124 53.744 52.124C55.5491 52.124 57.196 51.791 58.6388 51.0697L58.6577 51.0602L58.6763 51.0502C60.4913 50.078 61.26 48.2987 61.26 46.208C61.26 42.4728 58.3568 38.9434 53.6569 35.5802L53.6367 35.5657L53.6161 35.5519C52.816 35.0185 52.0452 34.5631 51.3046 34.1913C49.5653 33.2378 48.0959 32.3169 46.8871 31.4304C45.7769 30.6162 44.7682 29.5231 43.8721 28.1204C43.0633 26.8546 42.636 25.3502 42.636 23.552C42.636 21.3301 43.3115 19.3498 44.6862 17.5634C46.1794 15.6792 47.9328 14.2223 49.9501 13.1739C52.0989 12.0799 53.8177 11.612 55.152 11.612C59.013 11.612 62.0433 12.3847 64.3429 13.8172ZM68.189 21.4711C68.189 21.4712 68.1882 21.4707 68.1865 21.4697C68.1882 21.4706 68.189 21.4711 68.189 21.4711Z" fill="white" stroke="black" stroke-width="3"/>
<path d="M79.4552 44.164H79.464C80.4177 44.164 81.3613 44.2589 82.1029 44.6038C82.9023 44.9157 83.5123 45.4842 83.9168 46.2257L83.9366 46.2619L83.9543 46.2991C84.3858 47.2053 84.9225 48.3646 85.5634 49.7746L87.9294 54.8903L87.9327 54.8973L87.9326 54.8973L90.9386 61.4848C91.4949 62.6831 92.221 64.2635 93.1165 66.2251C94.0129 68.1885 94.6429 69.5317 95.0136 70.2732L95.0175 70.2809L95.0213 70.2887C95.7603 71.8103 96.1909 72.6432 96.352 72.901L96.3869 72.9568L96.4167 73.0155L97.1024 74.3624L96.9732 71.1972L96.972 71.1666V71.136V69.216C96.972 66.8599 97.0147 64.483 97.1 62.0853C97.0998 60.3148 97.0786 58.8944 97.0371 57.8177L97.0364 57.7987L97.0361 57.7797L96.9721 52.9157L96.9716 52.8746L96.9733 52.8336L97.2282 46.716C97.2342 46.171 97.3785 45.5002 97.9073 44.9713C98.4479 44.4308 99.1368 44.292 99.688 44.292C100.075 44.292 100.649 44.3905 101.262 44.5131L101.278 44.5162L101.293 44.5197C101.562 44.5794 101.857 44.612 102.184 44.612H102.187H102.189H102.191H102.194H102.196H102.199H102.201H102.204H102.206H102.209H102.211H102.214H102.216H102.219H102.221H102.224H102.226H102.229H102.231H102.234H102.236H102.239H102.241H102.243H102.246H102.248H102.251H102.253H102.256H102.258H102.261H102.263H102.265H102.268H102.27H102.273H102.275H102.278H102.28H102.283H102.285H102.287H102.29H102.292H102.295H102.297H102.299H102.302H102.304H102.307H102.309H102.311H102.314H102.316H102.319H102.321H102.323H102.326H102.328H102.331H102.333H102.335H102.338H102.34H102.342H102.345H102.347H102.35H102.352H102.354H102.357H102.359H102.361H102.364H102.366H102.368H102.371H102.373H102.376H102.378H102.38H102.383H102.385H102.387H102.39H102.392H102.394H102.397H102.399H102.401H102.404H102.406H102.408H102.41H102.413H102.415H102.417H102.42H102.422H102.424H102.427H102.429H102.431H102.434H102.436H102.438H102.44H102.443H102.445H102.447H102.45H102.452H102.454H102.456H102.459H102.461H102.463H102.466H102.468H102.47H102.472H102.475H102.477H102.479H102.481H102.484H102.486H102.488H102.49H102.493H102.495H102.497H102.499H102.502H102.504H102.506H102.508H102.511H102.513H102.515H102.517H102.519H102.522H102.524H102.526H102.528H102.531H102.533H102.535H102.537H102.539H102.542H102.544H102.546H102.548H102.55H102.553H102.555H102.557H102.559H102.561H102.564H102.566H102.568H102.57H102.572H102.574H102.577H102.579H102.581H102.583H102.585H102.587H102.59H102.592H102.594H102.596H102.598H102.6H102.603H102.605H102.607H102.609H102.611H102.613H102.615H102.617H102.62H102.622H102.624H102.626H102.628H102.63H102.632H102.635H102.637H102.639H102.641H102.643H102.645H102.647H102.649H102.651H102.654H102.656H102.658H102.66H102.662H102.664H102.666H102.668H102.67H102.672H102.674H102.676H102.679H102.681H102.683H102.685H102.687H102.689H102.691H102.693H102.695H102.697H102.699H102.701H102.703H102.705H102.707H102.71H102.712H102.714H102.716H102.718H102.72H102.722H102.724H102.726H102.728H102.73H102.732H102.734H102.736H102.738H102.74H102.742H102.744H102.746H102.748H102.75H102.752H102.754H102.756H102.758H102.76H102.762H102.764H102.766H102.768H102.77H102.772H102.774H102.776H102.778H102.78H102.782H102.784H102.786H102.788H102.79H102.792H102.794H102.796H102.798H102.8H102.802H102.804H102.806H102.808H102.81H102.811H102.813H102.815H102.817H102.819H102.821H102.823H102.825H102.827H102.829H102.831H102.833H102.835H102.837H102.839H102.84H102.842H102.844H102.846H102.848H102.85H102.852H102.854H102.856H102.858H102.86H102.861H102.863H102.865H102.867H102.869H102.871H102.873H102.875H102.877H102.878H102.88H102.882H102.884H102.886H102.888H102.89H102.892H102.893H102.895H102.897H102.899H102.901H102.903H102.905H102.906H102.908H102.91H102.912H102.914H102.916H102.918H102.919H102.921H102.923H102.925H102.927H102.929H102.93H102.932H102.934H102.936H102.938H102.939H102.941H102.943H102.945H102.947H102.948H102.95H102.952H102.954H102.956H102.958H102.959H102.961H102.963H102.965H102.966H102.968H102.97H102.972H102.974H102.975H102.977H102.979H102.981H102.982H102.984H102.986H102.988H102.99H102.991H102.993H102.995H102.997H102.998H103H103.002H103.004H103.005H103.007H103.009H103.011H103.012H103.014H103.016H103.017H103.019H103.021H103.023H103.024H103.026H103.028H103.03H103.031H103.033H103.035H103.036H103.038H103.04H103.041H103.043H103.045H103.047H103.048H103.05H103.052H103.053H103.055H103.057H103.058H103.06H103.062H103.063H103.065H103.067H103.068H103.07H103.072H103.073H103.075H103.077H103.078H103.08H103.082H103.083H103.085H103.087H103.088H103.09H103.092H103.093H103.095H103.097H103.098H103.1H103.102H103.103H103.105H103.106H103.108H103.11H103.111H103.113H103.114H103.116H103.118H103.119H103.121H103.123H103.124H103.126H103.127H103.129H103.131H103.132H103.134H103.135H103.137H103.139H103.14H103.142H103.143H103.145H103.146H103.148H103.15H103.151H103.153H103.154H103.156H103.157H103.159H103.161H103.162H103.164H103.165H103.167H103.168H103.17H103.171H103.173H103.175H103.176H103.178H103.179H103.181H103.182H103.184H103.185H103.187H103.188H103.19H103.191H103.193H103.194H103.196H103.197H103.199H103.2H103.202H103.203H103.205H103.207H103.208C103.428 44.612 103.676 44.6248 103.918 44.6731C104.088 44.7071 104.447 44.793 104.778 45.0612C105.391 45.5257 105.54 46.2097 105.54 46.688C105.54 46.9787 105.505 47.2719 105.446 47.5604C105.427 47.6589 105.412 47.7923 105.412 47.968V47.9767L105.412 47.9854L105.348 53.4869L105.348 53.4894L105.22 66.4149L105.22 66.4333L105.219 66.4517L105.156 68.2817C105.156 69.7083 105.177 71.004 105.219 72.17C105.262 73.3554 105.303 74.3219 105.345 75.0738C105.472 76.8997 105.538 78.4528 105.54 79.7256C105.541 79.7463 105.542 79.7699 105.542 79.7916C105.544 79.8587 105.547 79.9674 105.551 80.1155C105.559 80.4129 105.572 80.8794 105.588 81.5142C105.62 82.7828 105.667 84.7272 105.731 87.3471L105.859 90.9225L105.86 90.9492V90.976V91.104C105.86 91.727 105.716 92.5253 105.088 93.1208C104.442 93.7323 103.623 93.8147 102.987 93.7478L102.824 93.7307L102.744 93.7039C102.74 93.7036 102.736 93.7032 102.731 93.7028C102.663 93.6971 102.556 93.6925 102.401 93.692L100.572 93.7551L100.546 93.756H100.52H100.136C99.6393 93.756 99.0481 93.651 98.5321 93.2641L98.4468 93.2001L98.3713 93.1247C98.1836 92.937 98.0183 92.6928 97.9006 92.5109C97.7622 92.297 97.603 92.0306 97.4256 91.7202L97.3831 91.6457L97.3493 91.5668C97.2101 91.2422 97.0315 90.7951 96.8159 90.2344C96.6125 89.7054 96.3656 89.1082 96.0738 88.4413L96.0637 88.4182L96.0544 88.3949C94.2252 83.8008 92.9247 80.7203 92.1408 79.108C91.1693 77.249 88.7859 72.0703 85.0169 63.6433C84.497 62.5779 83.9362 61.4709 83.3344 60.3222L83.3956 63.9326C83.4806 66.7384 83.524 68.6143 83.524 69.536C83.524 73.0164 83.5877 76.5183 83.715 80.0418L83.7157 80.0593L83.7159 80.0768L83.7799 85.0688L83.78 85.0784V85.088C83.78 85.9449 83.8211 87.2146 83.9059 88.9118C83.9059 88.9135 83.906 88.9153 83.9061 88.9171L84.0336 91.1464L84.036 91.1892V91.232V91.36C84.036 91.9304 83.9054 92.9276 82.9878 93.4782C82.4602 93.7948 81.8688 93.88 81.3571 93.8839L80.0509 93.9432C79.0978 94.0755 78.0908 94.14 77.032 94.14C75.8517 94.14 74.9008 94.1611 74.1713 94.2017L74.1444 94.2032L74.1174 94.2037L70.8534 94.2677L70.8387 94.268H70.824C70.129 94.268 69.1139 94.1568 68.4404 93.4008C68.0226 92.9655 67.7608 92.4278 67.6751 91.8283C67.6563 91.6966 67.6394 91.5974 67.6251 91.5261C67.6134 91.4675 67.6065 91.4432 67.6066 91.4432L67.5846 91.3771L67.5677 91.3015C67.3658 90.393 67.276 89.3379 67.276 88.16C67.276 87.1377 67.2968 86.2468 67.34 85.4924C67.3406 83.2654 67.3836 80.6838 67.4686 77.7492L79.4552 44.164ZM79.4552 44.164L79.4464 44.1641M79.4552 44.164L79.4464 44.1641M79.4464 44.1641L74.0176 44.228C73.9487 44.2274 73.7966 44.2169 73.5323 44.1791C73.1547 44.1251 72.7631 44.1 72.36 44.1C71.5512 44.1 70.7007 44.314 70.0388 44.9522C69.3868 45.5809 69.1318 46.416 69.0723 47.2149C68.9398 48.9387 68.876 51.5025 68.876 54.88C68.876 55.7056 68.6269 59.6156 68.1119 66.7398L68.1117 66.7426M79.4464 44.1641L68.1117 66.7426M68.1117 66.7426L67.7932 71.265M68.1117 66.7426L67.7932 71.265M67.7932 71.265C67.6605 72.6047 67.5535 74.7771 67.4686 77.7486L67.7932 71.265ZM104.524 81.1878C104.377 81.1961 104.226 81.183 104.078 81.1547C104.056 80.3007 104.044 79.8411 104.041 79.776H105.54C105.54 79.776 105.54 79.7882 105.54 79.8048C105.54 79.8073 105.539 79.8155 105.539 79.8275C105.538 79.8391 105.538 79.8542 105.537 79.8712L105.537 79.8718C105.536 79.8843 105.532 79.9348 105.522 79.9983C105.516 80.0376 105.491 80.1474 105.471 80.2172C105.412 80.3738 104.99 80.9287 104.524 81.1878Z" fill="white" stroke="black" stroke-width="3"/>
</mask>
<g mask="url(#mask0_1_3)">
<path d="M129 5H-17V121H129V5Z" fill="url(#paint0_linear_1_3)"/>
</g>
<defs>
<linearGradient id="paint0_linear_1_3" x1="56" y1="5" x2="56" y2="121" gradientUnits="userSpaceOnUse">
<stop stop-color="#5A8791" stop-opacity="0.32"/>
<stop offset="0.0001" stop-color="#B5E2EB"/>
<stop offset="1" stop-color="#93B667" stop-opacity="0.95"/>
</linearGradient>
</defs>
</svg>
