<svg width="109" height="108" viewBox="0 0 109 108" fill="none" xmlns="http://www.w3.org/2000/svg">
<mask id="mask0_114_163" style="mask-type:alpha" maskUnits="userSpaceOnUse" x="3" y="10" width="102" height="83">
<path d="M11.968 50.272C12.1813 51.424 12.672 53.024 13.44 55.072C14.2507 57.12 15.0187 58.912 15.744 60.448C16.3413 61.472 17.1307 63.136 18.112 65.44C19.136 67.7013 19.8613 69.4933 20.288 70.816C20.544 71.4987 20.9067 72.352 21.376 73.376L22.336 75.68L23.68 78.688C24.9173 76.256 25.8133 74.4853 26.368 73.376L30.528 65.056L33.408 59.296C34.9013 56.224 35.904 54.24 36.416 53.344C37.2267 51.68 38.08 50.144 38.976 48.736C39.872 47.2853 40.512 46.56 40.896 46.56C41.2373 46.56 41.408 46.8373 41.408 47.392C41.408 47.904 41.3013 48.5867 41.088 49.44L40.832 51.04C40.6613 52.192 40.576 57.312 40.576 66.4C40.576 68.4053 40.512 70.8373 40.384 73.696C40.2987 76.5547 40.2133 78.4533 40.128 79.392C40.0427 80.5013 40 82.144 40 84.32L40.064 90.528V90.848C40.064 91.36 39.936 91.5733 39.68 91.488H39.552C39.3387 91.488 39.0827 91.5093 38.784 91.552C38.528 91.5947 38.2507 91.616 37.952 91.616C37.7813 91.5733 37.6533 91.4667 37.568 91.296C37.5253 91.1253 37.504 90.8267 37.504 90.4V86.624C37.504 82.272 37.5467 79.712 37.632 78.944C37.7173 78.048 37.8027 76.384 37.888 73.952C38.016 71.52 38.08 69.5573 38.08 68.064C38.0373 67.68 38.0587 66.4853 38.144 64.48L38.208 62.176L38.336 57.568C38.0373 57.9947 37.7813 58.4427 37.568 58.912C37.1413 59.6373 36.736 60.4267 36.352 61.28L35.712 62.56C34.9867 63.968 34.1547 65.632 33.216 67.552C32.2773 69.4293 31.4667 71.0293 30.784 72.352C30.016 73.888 29.0347 75.872 27.84 78.304C26.688 80.6933 25.792 82.592 25.152 84C24.0427 86.6027 23.4027 87.904 23.232 87.904C23.104 87.904 22.912 87.6907 22.656 87.264C22.4 86.8373 22.2293 86.56 22.144 86.432C21.8453 85.9627 21.376 84.9813 20.736 83.488C20.096 81.952 19.584 80.608 19.2 79.456C18.944 78.688 17.8347 76.5333 15.872 72.992C14.336 70.048 13.5467 68.512 13.504 68.384C13.0773 67.5307 12.5013 66.1013 11.776 64.096C11.3067 63.0293 10.944 62.0907 10.688 61.28L10.56 64.096L10.432 68.448L10.304 81.056L10.24 91.04C10.24 91.424 10.1333 91.6587 9.92 91.744C9.70667 91.8293 9.45067 91.872 9.152 91.872C8.85333 91.8293 8.61867 91.808 8.448 91.808L7.04 91.872C6.272 91.9573 5.71733 92 5.376 92C4.736 92 4.352 91.872 4.224 91.616C4.13867 91.3173 4.11733 90.72 4.16 89.824C4.16 88.416 4.13867 87.072 4.096 85.792L3.968 77.92C3.968 76.7253 4.01067 75.488 4.096 74.208C4.18133 72.8853 4.24533 71.712 4.288 70.688C4.50133 67.616 4.608 65.4613 4.608 64.224L4.736 52.192L4.672 48.736C4.672 47.2427 4.77867 46.3893 4.992 46.176C5.12 46.048 5.26933 45.984 5.44 45.984C5.568 45.984 5.76 46.0267 6.016 46.112C6.272 46.1973 6.592 46.2187 6.976 46.176C7.36 46.1333 7.89333 46.112 8.576 46.112C9.38667 46.112 9.984 46.1547 10.368 46.24C10.752 46.368 11.0293 46.688 11.2 47.2C11.3707 47.6693 11.52 48.224 11.648 48.864C11.776 49.4613 11.8827 49.9307 11.968 50.272Z" fill="white"/>
<path d="M55.152 10.112C59.2053 10.112 62.5333 10.9227 65.136 12.544C67.7813 14.1227 69.8293 15.6373 71.28 17.088C71.4507 17.2587 71.536 17.4507 71.536 17.664C71.536 17.792 71.472 17.9627 71.344 18.176C71.2587 18.3467 71.1947 18.4747 71.152 18.56C70.9387 18.8587 70.576 19.392 70.064 20.16C69.5947 20.8853 69.2107 21.4187 68.912 21.76C68.784 21.9307 68.6347 22.1227 68.464 22.336C68.336 22.5067 68.208 22.6347 68.08 22.72C67.9947 22.8053 67.8453 22.848 67.632 22.848C67.5467 22.848 67.3333 22.72 66.992 22.464C66.6933 22.1653 66.3947 21.9093 66.096 21.696C64.3893 20.2027 62.7253 18.9227 61.104 17.856C59.4827 16.7893 57.9253 16.256 56.432 16.256C55.2373 16.256 54.256 16.5333 53.488 17.088C52.72 17.6 52.336 18.7947 52.336 20.672C52.336 22.5067 53.0187 23.936 54.384 24.96C55.7493 25.984 57.5627 26.9653 59.824 27.904C60.0373 27.9893 61.2747 28.5227 63.536 29.504C65.84 30.4853 67.8667 32.3627 69.616 35.136C71.408 37.9093 72.304 41.216 72.304 45.056C72.304 49.152 70.768 52.224 67.696 54.272C64.624 56.32 60.3787 57.344 54.96 57.344C48.816 57.344 44.912 56.1707 43.248 53.824C41.584 51.4347 40.7093 50.1973 40.624 50.112C40.4533 49.8987 40.368 49.6853 40.368 49.472C40.368 49.344 40.5387 49.0667 40.88 48.64C41.4347 47.872 42.2453 46.9547 43.312 45.888C43.4827 45.7173 43.6533 45.632 43.824 45.632C44.0373 45.632 44.272 45.8027 44.528 46.144C44.784 46.4427 44.9973 46.6773 45.168 46.848C47.6853 49.3653 50.544 50.624 53.744 50.624C55.3653 50.624 56.7733 50.3253 57.968 49.728C59.1627 49.088 59.76 47.9147 59.76 46.208C59.76 43.264 57.4347 40.128 52.784 36.8C52.016 36.288 51.2907 35.8613 50.608 35.52C48.816 34.5387 47.28 33.5787 46 32.64C44.72 31.7013 43.5893 30.464 42.608 28.928C41.6267 27.392 41.136 25.6 41.136 23.552C41.136 20.992 41.9253 18.688 43.504 16.64C45.1253 14.592 47.0453 12.992 49.264 11.84C51.5253 10.688 53.488 10.112 55.152 10.112Z" fill="white"/>
<path d="M79.464 45.664C80.4027 45.664 81.0853 45.7707 81.512 45.984C81.9813 46.1547 82.344 46.4747 82.6 46.944C83.0267 47.84 83.56 48.992 84.2 50.4L86.568 55.52L89.576 62.112C90.1307 63.3067 90.856 64.8853 91.752 66.848C92.648 68.8107 93.288 70.176 93.672 70.944C94.3973 72.4373 94.8667 73.3547 95.08 73.696L96.872 77.216L98.856 81.12L98.728 77.408L98.472 71.136V69.216C98.472 66.8693 98.5147 64.5013 98.6 62.112C98.6 60.32 98.5787 58.8693 98.536 57.76L98.472 52.896L98.728 46.752C98.728 46.112 99.048 45.792 99.688 45.792C99.9013 45.792 100.328 45.856 100.968 45.984C101.352 46.0693 101.757 46.112 102.184 46.112C102.611 46.112 102.952 46.112 103.208 46.112C103.549 46.112 103.763 46.1547 103.848 46.24C103.976 46.3253 104.04 46.4747 104.04 46.688C104.04 46.8587 104.019 47.0507 103.976 47.264C103.933 47.4773 103.912 47.712 103.912 47.968L103.848 53.472L103.72 66.4L103.656 68.256C103.656 69.7067 103.677 71.0293 103.72 72.224C103.763 73.4187 103.805 74.4 103.848 75.168C103.976 77.0027 104.04 78.5387 104.04 79.776C104.04 79.6053 104.104 82.144 104.232 87.392L104.36 90.976V91.104C104.36 91.9573 103.955 92.3413 103.144 92.256C103.016 92.2133 102.76 92.192 102.376 92.192L100.52 92.256H100.136C99.8373 92.256 99.6027 92.192 99.432 92.064C99.304 91.936 99.0693 91.5733 98.728 90.976C98.6 90.6773 98.4293 90.2507 98.216 89.696C98.0027 89.1413 97.7467 88.5227 97.448 87.84C95.6133 83.232 94.2907 80.096 93.48 78.432C92.5413 76.64 90.1733 71.4987 86.376 63.008C85.5227 61.2587 84.5627 59.4027 83.496 57.44L81.64 54.112L81.832 60.192L81.896 63.968C81.9813 66.784 82.024 68.64 82.024 69.536C82.024 73.0347 82.088 76.5547 82.216 80.096L82.28 85.088C82.28 85.984 82.3227 87.2853 82.408 88.992L82.536 91.232V91.36C82.536 91.7867 82.4293 92.064 82.216 92.192C82.0027 92.32 81.704 92.384 81.32 92.384L79.912 92.448C79.016 92.576 78.056 92.64 77.032 92.64C75.8373 92.64 74.856 92.6613 74.088 92.704L70.824 92.768C70.184 92.768 69.7573 92.64 69.544 92.384C69.3307 92.1707 69.2027 91.9147 69.16 91.616C69.1173 91.3173 69.0747 91.104 69.032 90.976C68.8613 90.208 68.776 89.2693 68.776 88.16C68.776 87.136 68.7973 86.2613 68.84 85.536C68.84 83.3173 68.8827 80.736 68.968 77.792C69.0533 74.8053 69.16 72.672 69.288 71.392L69.608 66.848C70.12 59.7653 70.376 55.776 70.376 54.88C70.376 51.5093 70.44 48.992 70.568 47.328C70.6533 46.176 71.2507 45.6 72.36 45.6C72.7013 45.6 73.0213 45.6213 73.32 45.664C73.6187 45.7067 73.8533 45.728 74.024 45.728L79.464 45.664Z" fill="white"/>
</mask>
<g mask="url(#mask0_114_163)">
<rect x="-16" width="146" height="116" fill="url(#paint0_linear_114_163)"/>
</g>
<defs>
<linearGradient id="paint0_linear_114_163" x1="57" y1="0" x2="57" y2="116" gradientUnits="userSpaceOnUse">
<stop stop-color="#91E5F6"/>
<stop offset="1" stop-color="white" stop-opacity="0"/>
</linearGradient>
</defs>
</svg>
